<svg width="480" height="49" viewBox="0 0 480 49" fill="none" xmlns="http://www.w3.org/2000/svg">
<path d="M14.176 36.768C11.872 36.768 9.736 36.384 7.768 35.616C5.8 34.832 4.2 33.616 2.968 31.968C1.736 30.304 1.056 28.144 0.928 25.488H8.512C8.512 26.464 8.76 27.272 9.256 27.912C9.752 28.552 10.424 29.024 11.272 29.328C12.136 29.632 13.088 29.784 14.128 29.784C14.96 29.784 15.736 29.712 16.456 29.568C17.192 29.424 17.784 29.168 18.232 28.8C18.68 28.432 18.904 27.928 18.904 27.288C18.904 26.504 18.664 25.92 18.184 25.536C17.72 25.152 16.872 24.712 15.64 24.216L8.632 21.168C6.328 20.176 4.536 19.008 3.256 17.664C1.976 16.32 1.336 14.488 1.336 12.168C1.336 9.448 2.44 7.256 4.648 5.592C6.872 3.912 9.912 3.072 13.768 3.072C17.688 3.072 20.696 4 22.792 5.856C24.888 7.696 26.064 10.328 26.32 13.752H18.784C18.592 12.696 18.12 11.808 17.368 11.088C16.632 10.368 15.432 10.008 13.768 10.008C12.568 10.008 11.6 10.232 10.864 10.68C10.128 11.112 9.76 11.656 9.76 12.312C9.76 12.92 9.992 13.4 10.456 13.752C10.936 14.104 11.648 14.488 12.592 14.904L20.008 18.048C22.472 19.12 24.304 20.376 25.504 21.816C26.72 23.256 27.328 24.984 27.328 27C27.328 29.16 26.808 30.968 25.768 32.424C24.744 33.864 23.248 34.952 21.28 35.688C19.328 36.408 16.96 36.768 14.176 36.768Z" fill="#005B33"/>
<path d="M31.018 12.36H39.802L44.65 29.28H43.474L48.298 12.36H56.074L46.858 39.816C45.738 43.048 44.434 45.272 42.946 46.488C41.474 47.704 39.754 48.312 37.786 48.312C36.586 48.312 35.378 48.2 34.162 47.976C32.962 47.768 31.762 47.416 30.562 46.92V40.32C31.458 40.736 32.33 41.048 33.178 41.256C34.042 41.48 34.882 41.592 35.698 41.592C36.242 41.592 36.754 41.488 37.234 41.28C37.714 41.088 38.154 40.744 38.554 40.248C38.954 39.752 39.29 39.072 39.562 38.208L40.33 36L31.018 12.36ZM76.0634 36V22.224C76.0634 20.976 75.7594 20.056 75.1514 19.464C74.5434 18.856 73.8074 18.552 72.9434 18.552C72.0634 18.552 71.2554 18.8 70.5194 19.296C69.7834 19.792 69.1914 20.592 68.7434 21.696C68.3114 22.784 68.0954 24.232 68.0954 26.04H65.7674C65.7674 22.648 66.1674 19.888 66.9674 17.76C67.7834 15.632 68.8874 14.072 70.2794 13.08C71.6874 12.088 73.2794 11.592 75.0554 11.592C77.0874 11.592 78.7434 12.048 80.0234 12.96C81.3194 13.872 82.2714 15.128 82.8794 16.728C83.4874 18.328 83.7914 20.16 83.7914 22.224V36H76.0634ZM60.4154 36V12.36H67.1834L68.0954 16.272V36H60.4154ZM100.954 36.768C98.89 36.768 96.97 36.248 95.194 35.208C93.434 34.168 92.01 32.704 90.922 30.816C89.85 28.928 89.314 26.72 89.314 24.192C89.314 21.424 89.85 19.112 90.922 17.256C92.01 15.384 93.434 13.976 95.194 13.032C96.97 12.072 98.89 11.592 100.954 11.592C102.698 11.592 104.218 11.888 105.514 12.48C106.826 13.072 107.914 13.848 108.778 14.808C109.642 15.768 110.282 16.824 110.698 17.976C111.13 19.128 111.346 20.256 111.346 21.36L103.666 21.288C103.554 20.6 103.274 19.976 102.826 19.416C102.394 18.84 101.754 18.552 100.906 18.552C100.234 18.552 99.594 18.728 98.986 19.08C98.394 19.416 97.906 19.992 97.522 20.808C97.154 21.624 96.97 22.752 96.97 24.192C96.97 25.6 97.154 26.712 97.522 27.528C97.906 28.344 98.394 28.92 98.986 29.256C99.594 29.592 100.234 29.76 100.906 29.76C101.994 29.76 102.722 29.512 103.09 29.016C103.474 28.504 103.666 27.864 103.666 27.096H111.346C111.346 28.792 110.97 30.376 110.218 31.848C109.466 33.32 108.322 34.512 106.786 35.424C105.266 36.32 103.322 36.768 100.954 36.768ZM133.063 36V22.224C133.063 20.976 132.759 20.056 132.151 19.464C131.543 18.856 130.807 18.552 129.943 18.552C129.063 18.552 128.255 18.8 127.519 19.296C126.783 19.792 126.191 20.592 125.743 21.696C125.311 22.784 125.095 24.232 125.095 26.04H122.767C122.767 22.648 123.167 19.888 123.967 17.76C124.783 15.632 125.887 14.072 127.279 13.08C128.687 12.088 130.279 11.592 132.055 11.592C134.087 11.592 135.743 12.048 137.023 12.96C138.319 13.872 139.271 15.128 139.879 16.728C140.487 18.328 140.791 20.16 140.791 22.224V36H133.063ZM117.415 36V2.88H125.095V36H117.415ZM148.306 36V12.216H155.986V36H148.306ZM154.354 25.92C154.354 22.704 154.762 20.064 155.578 18C156.394 15.936 157.426 14.408 158.674 13.416C159.922 12.424 161.194 11.928 162.49 11.928C162.746 11.928 163.002 11.944 163.258 11.976C163.514 11.992 163.754 12.024 163.978 12.072L164.05 19.8C163.65 19.752 163.242 19.72 162.826 19.704C162.41 19.672 162.018 19.656 161.65 19.656C160.53 19.656 159.538 19.864 158.674 20.28C157.826 20.696 157.162 21.36 156.682 22.272C156.218 23.184 155.986 24.4 155.986 25.92H154.354ZM178.777 36.768C176.585 36.768 174.569 36.32 172.729 35.424C170.905 34.512 169.441 33.136 168.337 31.296C167.249 29.44 166.705 27.088 166.705 24.24C166.705 21.296 167.249 18.896 168.337 17.04C169.441 15.184 170.905 13.816 172.729 12.936C174.569 12.04 176.585 11.592 178.777 11.592C180.921 11.592 182.897 12.04 184.705 12.936C186.513 13.816 187.961 15.184 189.049 17.04C190.153 18.896 190.705 21.296 190.705 24.24C190.705 27.088 190.153 29.44 189.049 31.296C187.961 33.136 186.513 34.512 184.705 35.424C182.897 36.32 180.921 36.768 178.777 36.768ZM178.489 30.072C179.225 30.072 179.937 29.88 180.625 29.496C181.329 29.112 181.913 28.496 182.377 27.648C182.841 26.784 183.073 25.648 183.073 24.24C183.073 22.048 182.681 20.504 181.897 19.608C181.113 18.712 180.169 18.264 179.065 18.264C178.329 18.264 177.593 18.456 176.857 18.84C176.137 19.224 175.537 19.856 175.057 20.736C174.593 21.6 174.361 22.768 174.361 24.24C174.361 26.368 174.769 27.872 175.585 28.752C176.417 29.632 177.385 30.072 178.489 30.072ZM212.517 36V22.224C212.517 20.976 212.213 20.056 211.605 19.464C210.997 18.856 210.261 18.552 209.397 18.552C208.517 18.552 207.709 18.8 206.973 19.296C206.237 19.792 205.645 20.592 205.197 21.696C204.765 22.784 204.549 24.232 204.549 26.04H202.221C202.221 22.648 202.621 19.888 203.421 17.76C204.237 15.632 205.341 14.072 206.733 13.08C208.141 12.088 209.733 11.592 211.509 11.592C213.541 11.592 215.197 12.048 216.477 12.96C217.773 13.872 218.725 15.128 219.333 16.728C219.941 18.328 220.245 20.16 220.245 22.224V36H212.517ZM196.869 36V12.36H203.637L204.549 16.272V36H196.869ZM232.343 9.312C230.887 9.312 229.759 8.944 228.959 8.208C228.175 7.456 227.783 6.4 227.783 5.04C227.783 3.712 228.175 2.656 228.959 1.872C229.759 1.072 230.887 0.671997 232.343 0.671997C233.751 0.671997 234.863 1.072 235.679 1.872C236.495 2.656 236.903 3.712 236.903 5.04C236.903 6.4 236.495 7.456 235.679 8.208C234.863 8.944 233.751 9.312 232.343 9.312ZM228.503 36V12.216H236.183V36H228.503ZM254.153 36.768C251.897 36.768 249.905 36.472 248.177 35.88C246.449 35.272 245.097 34.368 244.121 33.168C243.161 31.952 242.689 30.424 242.705 28.584H249.641C249.673 29.416 249.993 29.992 250.601 30.312C251.225 30.632 252.065 30.792 253.121 30.792C253.761 30.792 254.289 30.712 254.705 30.552C255.121 30.392 255.433 30.184 255.641 29.928C255.849 29.656 255.953 29.368 255.953 29.064C255.953 28.664 255.809 28.344 255.521 28.104C255.233 27.864 254.785 27.624 254.177 27.384L248.441 25.152C246.745 24.448 245.433 23.56 244.505 22.488C243.593 21.4 243.137 20.112 243.137 18.624C243.137 16.528 244.105 14.832 246.041 13.536C247.977 12.24 250.625 11.592 253.985 11.592C257.137 11.592 259.561 12.328 261.257 13.8C262.953 15.272 263.809 17.144 263.825 19.416H256.793C256.793 18.904 256.577 18.464 256.145 18.096C255.713 17.712 254.993 17.52 253.985 17.52C253.153 17.52 252.497 17.656 252.017 17.928C251.537 18.2 251.297 18.56 251.297 19.008C251.297 19.616 251.801 20.096 252.809 20.448L259.337 23.064C260.953 23.704 262.225 24.504 263.153 25.464C264.081 26.424 264.545 27.624 264.545 29.064C264.545 30.376 264.089 31.624 263.177 32.808C262.281 33.976 261.049 34.928 259.481 35.664C257.913 36.4 256.137 36.768 254.153 36.768ZM279.871 36.768C277.887 36.768 276.023 36.256 274.279 35.232C272.535 34.208 271.119 32.744 270.031 30.84C268.959 28.936 268.423 26.68 268.423 24.072C268.423 21.464 268.959 19.232 270.031 17.376C271.103 15.504 272.511 14.072 274.255 13.08C275.999 12.088 277.871 11.592 279.871 11.592C281.855 11.592 283.583 11.992 285.055 12.792C286.527 13.576 287.711 14.64 288.607 15.984C289.519 17.328 290.111 18.848 290.383 20.544C290.671 22.224 290.615 23.96 290.215 25.752H274.495V21.864H284.599L283.495 22.584C283.543 22.024 283.519 21.456 283.423 20.88C283.343 20.304 283.175 19.776 282.919 19.296C282.663 18.8 282.295 18.408 281.815 18.12C281.351 17.816 280.751 17.664 280.015 17.664C279.199 17.664 278.487 17.864 277.879 18.264C277.287 18.648 276.823 19.216 276.487 19.968C276.167 20.704 276.007 21.608 276.007 22.68V25.704C276.007 26.712 276.151 27.584 276.439 28.32C276.727 29.056 277.151 29.632 277.711 30.048C278.287 30.448 279.007 30.648 279.871 30.648C280.575 30.648 281.191 30.504 281.719 30.216C282.247 29.928 282.615 29.472 282.823 28.848H290.455C290.215 30.32 289.623 31.656 288.679 32.856C287.751 34.056 286.535 35.008 285.031 35.712C283.543 36.416 281.823 36.768 279.871 36.768ZM328.671 9.312C327.215 9.312 326.087 8.944 325.287 8.208C324.503 7.456 324.111 6.4 324.111 5.04C324.111 3.712 324.503 2.656 325.287 1.872C326.087 1.072 327.215 0.671997 328.671 0.671997C330.079 0.671997 331.191 1.072 332.007 1.872C332.823 2.656 333.231 3.712 333.231 5.04C333.231 6.4 332.823 7.456 332.007 8.208C331.191 8.944 330.079 9.312 328.671 9.312ZM324.831 36V12.216H332.511V36H324.831ZM356.985 36V22.224C356.985 20.976 356.681 20.056 356.073 19.464C355.465 18.856 354.729 18.552 353.865 18.552C352.985 18.552 352.177 18.8 351.441 19.296C350.705 19.792 350.113 20.592 349.665 21.696C349.233 22.784 349.017 24.232 349.017 26.04H346.689C346.689 22.648 347.089 19.888 347.889 17.76C348.705 15.632 349.809 14.072 351.201 13.08C352.609 12.088 354.201 11.592 355.977 11.592C358.009 11.592 359.665 12.048 360.945 12.96C362.241 13.872 363.193 15.128 363.801 16.728C364.409 18.328 364.713 20.16 364.713 22.224V36H356.985ZM341.337 36V12.36H348.105L349.017 16.272V36H341.337ZM387.732 36L386.748 29.688V20.832C386.748 19.648 386.532 18.728 386.1 18.072C385.668 17.416 384.748 17.088 383.34 17.088C382.508 17.088 381.828 17.216 381.3 17.472C380.788 17.712 380.404 18.04 380.148 18.456C379.908 18.856 379.788 19.296 379.788 19.776H371.484C371.484 17.92 371.924 16.392 372.804 15.192C373.684 13.976 375.004 13.072 376.764 12.48C378.524 11.888 380.716 11.592 383.34 11.592C385.628 11.592 387.596 11.944 389.244 12.648C390.908 13.352 392.188 14.408 393.084 15.816C393.98 17.224 394.428 18.992 394.428 21.12V36H387.732ZM380.292 36.768C378.18 36.768 376.396 36.416 374.94 35.712C373.5 34.992 372.412 34.024 371.676 32.808C370.94 31.592 370.572 30.248 370.572 28.776C370.572 27.384 370.956 26.184 371.724 25.176C372.492 24.152 373.628 23.36 375.132 22.8C376.652 22.24 378.516 21.96 380.724 21.96C382.068 21.96 383.252 22.032 384.276 22.176C385.316 22.32 386.38 22.496 387.468 22.704V27.024C386.668 26.848 385.836 26.712 384.972 26.616C384.124 26.52 383.292 26.472 382.476 26.472C381.34 26.472 380.436 26.656 379.764 27.024C379.108 27.376 378.78 27.96 378.78 28.776C378.78 29.368 379.076 29.888 379.668 30.336C380.26 30.768 381.196 30.984 382.476 30.984C383.564 30.984 384.42 30.768 385.044 30.336C385.668 29.904 386.108 29.36 386.364 28.704C386.62 28.048 386.748 27.4 386.748 26.76H388.548C388.548 28.584 388.26 30.256 387.684 31.776C387.108 33.296 386.212 34.512 384.996 35.424C383.78 36.32 382.212 36.768 380.292 36.768ZM417.688 36V22.224C417.688 20.976 417.384 20.056 416.776 19.464C416.168 18.856 415.432 18.552 414.568 18.552C413.688 18.552 412.88 18.8 412.144 19.296C411.408 19.792 410.816 20.592 410.368 21.696C409.936 22.784 409.72 24.232 409.72 26.04H407.392C407.392 22.648 407.792 19.888 408.592 17.76C409.408 15.632 410.512 14.072 411.904 13.08C413.312 12.088 414.904 11.592 416.68 11.592C418.712 11.592 420.368 12.048 421.648 12.96C422.944 13.872 423.896 15.128 424.504 16.728C425.112 18.328 425.416 20.16 425.416 22.224V36H417.688ZM402.04 36V12.36H408.808L409.72 16.272V36H402.04ZM442.579 36.768C440.515 36.768 438.595 36.248 436.819 35.208C435.059 34.168 433.635 32.704 432.547 30.816C431.475 28.928 430.939 26.72 430.939 24.192C430.939 21.424 431.475 19.112 432.547 17.256C433.635 15.384 435.059 13.976 436.819 13.032C438.595 12.072 440.515 11.592 442.579 11.592C444.323 11.592 445.843 11.888 447.139 12.48C448.451 13.072 449.539 13.848 450.403 14.808C451.267 15.768 451.907 16.824 452.323 17.976C452.755 19.128 452.971 20.256 452.971 21.36L445.291 21.288C445.179 20.6 444.899 19.976 444.451 19.416C444.019 18.84 443.379 18.552 442.531 18.552C441.859 18.552 441.219 18.728 440.611 19.08C440.019 19.416 439.531 19.992 439.147 20.808C438.779 21.624 438.595 22.752 438.595 24.192C438.595 25.6 438.779 26.712 439.147 27.528C439.531 28.344 440.019 28.92 440.611 29.256C441.219 29.592 441.859 29.76 442.531 29.76C443.619 29.76 444.347 29.512 444.715 29.016C445.099 28.504 445.291 27.864 445.291 27.096H452.971C452.971 28.792 452.595 30.376 451.843 31.848C451.091 33.32 449.947 34.512 448.411 35.424C446.891 36.32 444.947 36.768 442.579 36.768ZM468.496 36.768C466.512 36.768 464.648 36.256 462.904 35.232C461.16 34.208 459.744 32.744 458.656 30.84C457.584 28.936 457.048 26.68 457.048 24.072C457.048 21.464 457.584 19.232 458.656 17.376C459.728 15.504 461.136 14.072 462.88 13.08C464.624 12.088 466.496 11.592 468.496 11.592C470.48 11.592 472.208 11.992 473.68 12.792C475.152 13.576 476.336 14.64 477.232 15.984C478.144 17.328 478.736 18.848 479.008 20.544C479.296 22.224 479.24 23.96 478.84 25.752H463.12V21.864H473.224L472.12 22.584C472.168 22.024 472.144 21.456 472.048 20.88C471.968 20.304 471.8 19.776 471.544 19.296C471.288 18.8 470.92 18.408 470.44 18.12C469.976 17.816 469.376 17.664 468.64 17.664C467.824 17.664 467.112 17.864 466.504 18.264C465.912 18.648 465.448 19.216 465.112 19.968C464.792 20.704 464.632 21.608 464.632 22.68V25.704C464.632 26.712 464.776 27.584 465.064 28.32C465.352 29.056 465.776 29.632 466.336 30.048C466.912 30.448 467.632 30.648 468.496 30.648C469.2 30.648 469.816 30.504 470.344 30.216C470.872 29.928 471.24 29.472 471.448 28.848H479.08C478.84 30.32 478.248 31.656 477.304 32.856C476.376 34.056 475.16 35.008 473.656 35.712C472.168 36.416 470.448 36.768 468.496 36.768Z" fill="black"/>
<path d="M296.712 36V3.792H317.712V10.44H304.392V16.752H316.32V23.304H304.392V36H296.712Z" fill="#13026F"/>
</svg>
