<svg width="282" height="47" viewBox="0 0 282 47" fill="none" xmlns="http://www.w3.org/2000/svg">
<path d="M0.288 1.792H8.832L16.056 27.232H14.28L21.12 2.752H26.304L33.84 26.656H32.28L39.096 1.792H47.808L37.056 34H28.968L23.784 17.776H24.12L19.176 34H11.112L0.288 1.792Z" fill="#005B33"/>
<path d="M59.262 34.768C57.278 34.768 55.414 34.256 53.67 33.232C51.926 32.208 50.51 30.744 49.422 28.84C48.35 26.936 47.814 24.68 47.814 22.072C47.814 19.464 48.35 17.232 49.422 15.376C50.494 13.504 51.902 12.072 53.646 11.08C55.39 10.088 57.262 9.592 59.262 9.592C61.246 9.592 62.974 9.992 64.446 10.792C65.918 11.576 67.102 12.64 67.998 13.984C68.91 15.328 69.502 16.848 69.774 18.544C70.062 20.224 70.006 21.96 69.606 23.752H53.886V19.864H63.99L62.886 20.584C62.934 20.024 62.91 19.456 62.814 18.88C62.734 18.304 62.566 17.776 62.31 17.296C62.054 16.8 61.686 16.408 61.206 16.12C60.742 15.816 60.142 15.664 59.406 15.664C58.59 15.664 57.878 15.864 57.27 16.264C56.678 16.648 56.214 17.216 55.878 17.968C55.558 18.704 55.398 19.608 55.398 20.68V23.704C55.398 24.712 55.542 25.584 55.83 26.32C56.118 27.056 56.542 27.632 57.102 28.048C57.678 28.448 58.398 28.648 59.262 28.648C59.966 28.648 60.582 28.504 61.11 28.216C61.638 27.928 62.006 27.472 62.214 26.848H69.846C69.606 28.32 69.014 29.656 68.07 30.856C67.142 32.056 65.926 33.008 64.422 33.712C62.934 34.416 61.214 34.768 59.262 34.768ZM91.6069 34L90.6229 27.688V18.832C90.6229 17.648 90.4069 16.728 89.9749 16.072C89.5429 15.416 88.6229 15.088 87.2149 15.088C86.3829 15.088 85.7029 15.216 85.1749 15.472C84.6629 15.712 84.2789 16.04 84.0229 16.456C83.7829 16.856 83.6629 17.296 83.6629 17.776H75.3589C75.3589 15.92 75.7989 14.392 76.6789 13.192C77.5589 11.976 78.8789 11.072 80.6389 10.48C82.3989 9.888 84.5909 9.592 87.2149 9.592C89.5029 9.592 91.4709 9.944 93.1189 10.648C94.7829 11.352 96.0629 12.408 96.9589 13.816C97.8549 15.224 98.3029 16.992 98.3029 19.12V34H91.6069ZM84.1669 34.768C82.0549 34.768 80.2709 34.416 78.8149 33.712C77.3749 32.992 76.2869 32.024 75.5509 30.808C74.8149 29.592 74.4469 28.248 74.4469 26.776C74.4469 25.384 74.8309 24.184 75.5989 23.176C76.3669 22.152 77.5029 21.36 79.0069 20.8C80.5269 20.24 82.3909 19.96 84.5989 19.96C85.9429 19.96 87.1269 20.032 88.1509 20.176C89.1909 20.32 90.2549 20.496 91.3429 20.704V25.024C90.5429 24.848 89.7109 24.712 88.8469 24.616C87.9989 24.52 87.1669 24.472 86.3509 24.472C85.2149 24.472 84.3109 24.656 83.6389 25.024C82.9829 25.376 82.6549 25.96 82.6549 26.776C82.6549 27.368 82.9509 27.888 83.5429 28.336C84.1349 28.768 85.0709 28.984 86.3509 28.984C87.4389 28.984 88.2949 28.768 88.9189 28.336C89.5429 27.904 89.9829 27.36 90.2389 26.704C90.4949 26.048 90.6229 25.4 90.6229 24.76H92.4229C92.4229 26.584 92.1349 28.256 91.5589 29.776C90.9829 31.296 90.0869 32.512 88.8709 33.424C87.6549 34.32 86.0869 34.768 84.1669 34.768ZM105.915 34V0.879997H113.595V34H105.915ZM130.495 34.768C128.991 34.768 127.583 34.496 126.271 33.952C124.975 33.408 123.927 32.56 123.127 31.408C122.343 30.24 121.951 28.744 121.951 26.92V4.384H129.679V26.632C129.679 28.072 130.391 28.792 131.815 28.792C132.263 28.792 132.735 28.744 133.231 28.648C133.743 28.536 134.335 28.36 135.007 28.12L136.135 33.472C135.159 33.824 134.223 34.128 133.327 34.384C132.447 34.64 131.503 34.768 130.495 34.768ZM119.143 15.328V10.36H135.055V15.328H119.143ZM157.282 34V20.224C157.282 18.976 156.978 18.056 156.37 17.464C155.762 16.856 155.026 16.552 154.162 16.552C153.282 16.552 152.474 16.8 151.738 17.296C151.002 17.792 150.41 18.592 149.962 19.696C149.53 20.784 149.314 22.232 149.314 24.04H146.986C146.986 20.648 147.386 17.888 148.186 15.76C149.002 13.632 150.106 12.072 151.498 11.08C152.906 10.088 154.498 9.592 156.274 9.592C158.306 9.592 159.962 10.048 161.242 10.96C162.538 11.872 163.49 13.128 164.098 14.728C164.706 16.328 165.01 18.16 165.01 20.224V34H157.282ZM141.634 34V0.879997H149.314V34H141.634ZM201.487 10.36H210.271L215.119 27.28H213.943L218.767 10.36H226.543L217.327 37.816C216.207 41.048 214.903 43.272 213.415 44.488C211.943 45.704 210.223 46.312 208.255 46.312C207.055 46.312 205.847 46.2 204.631 45.976C203.431 45.768 202.231 45.416 201.031 44.92V38.32C201.927 38.736 202.799 39.048 203.647 39.256C204.511 39.48 205.351 39.592 206.167 39.592C206.711 39.592 207.223 39.488 207.703 39.28C208.183 39.088 208.623 38.744 209.023 38.248C209.423 37.752 209.759 37.072 210.031 36.208L210.799 34L201.487 10.36ZM246.532 34V20.224C246.532 18.976 246.228 18.056 245.62 17.464C245.012 16.856 244.276 16.552 243.412 16.552C242.532 16.552 241.724 16.8 240.988 17.296C240.252 17.792 239.66 18.592 239.212 19.696C238.78 20.784 238.564 22.232 238.564 24.04H236.236C236.236 20.648 236.636 17.888 237.436 15.76C238.252 13.632 239.356 12.072 240.748 11.08C242.156 10.088 243.748 9.592 245.524 9.592C247.556 9.592 249.212 10.048 250.492 10.96C251.788 11.872 252.74 13.128 253.348 14.728C253.956 16.328 254.26 18.16 254.26 20.224V34H246.532ZM230.884 34V10.36H237.652L238.564 14.272V34H230.884ZM271.423 34.768C269.359 34.768 267.439 34.248 265.663 33.208C263.903 32.168 262.479 30.704 261.391 28.816C260.319 26.928 259.783 24.72 259.783 22.192C259.783 19.424 260.319 17.112 261.391 15.256C262.479 13.384 263.903 11.976 265.663 11.032C267.439 10.072 269.359 9.592 271.423 9.592C273.167 9.592 274.687 9.888 275.983 10.48C277.295 11.072 278.383 11.848 279.247 12.808C280.111 13.768 280.751 14.824 281.167 15.976C281.599 17.128 281.815 18.256 281.815 19.36L274.135 19.288C274.023 18.6 273.743 17.976 273.295 17.416C272.863 16.84 272.223 16.552 271.375 16.552C270.703 16.552 270.063 16.728 269.455 17.08C268.863 17.416 268.375 17.992 267.991 18.808C267.623 19.624 267.439 20.752 267.439 22.192C267.439 23.6 267.623 24.712 267.991 25.528C268.375 26.344 268.863 26.92 269.455 27.256C270.063 27.592 270.703 27.76 271.375 27.76C272.463 27.76 273.191 27.512 273.559 27.016C273.943 26.504 274.135 25.864 274.135 25.096H281.815C281.815 26.792 281.439 28.376 280.687 29.848C279.935 31.32 278.791 32.512 277.255 33.424C275.735 34.32 273.791 34.768 271.423 34.768Z" fill="black"/>
<path d="M184.645 34.768C182.341 34.768 180.205 34.384 178.237 33.616C176.269 32.832 174.669 31.616 173.437 29.968C172.205 28.304 171.525 26.144 171.397 23.488H178.981C178.981 24.464 179.229 25.272 179.725 25.912C180.221 26.552 180.893 27.024 181.741 27.328C182.605 27.632 183.557 27.784 184.597 27.784C185.429 27.784 186.205 27.712 186.925 27.568C187.661 27.424 188.253 27.168 188.701 26.8C189.149 26.432 189.373 25.928 189.373 25.288C189.373 24.504 189.133 23.92 188.653 23.536C188.189 23.152 187.341 22.712 186.109 22.216L179.101 19.168C176.797 18.176 175.005 17.008 173.725 15.664C172.445 14.32 171.805 12.488 171.805 10.168C171.805 7.448 172.909 5.256 175.117 3.592C177.341 1.912 180.381 1.072 184.237 1.072C188.157 1.072 191.165 2 193.261 3.856C195.357 5.696 196.533 8.328 196.789 11.752H189.253C189.061 10.696 188.589 9.808 187.837 9.088C187.101 8.368 185.901 8.008 184.237 8.008C183.037 8.008 182.069 8.232 181.333 8.68C180.597 9.112 180.229 9.656 180.229 10.312C180.229 10.92 180.461 11.4 180.925 11.752C181.405 12.104 182.117 12.488 183.061 12.904L190.477 16.048C192.941 17.12 194.773 18.376 195.973 19.816C197.189 21.256 197.797 22.984 197.797 25C197.797 27.16 197.277 28.968 196.237 30.424C195.213 31.864 193.717 32.952 191.749 33.688C189.797 34.408 187.429 34.768 184.645 34.768Z" fill="#13026F"/>
</svg>
